<svg width="16" height="16" viewBox="0 0 22 22" fill="#fff" xmlns="http://www.w3.org/2000/svg">
<path d="M11 0C4.93423 0 0 4.93423 0 11C0 17.0658 4.93423 22 11 22C17.0658 22 22 17.0649 22 11C22 4.93509 17.0658 0 11 0ZM11 20.2959C5.8749 20.2959 1.7041 16.126 1.7041 11C1.7041 5.87404 5.8749 1.7041 11 1.7041C16.1251 1.7041 20.2959 5.87404 20.2959 11C20.2959 16.126 16.126 20.2959 11 20.2959Z" fill="#fff"/>
<path d="M15.2601 10.0713H11.8519V6.6631C11.8519 6.19277 11.4711 5.81104 10.9999 5.81104C10.5287 5.81104 10.1478 6.19277 10.1478 6.6631V10.0713H6.73961C6.26842 10.0713 5.88754 10.453 5.88754 10.9234C5.88754 11.3937 6.26842 11.7754 6.73961 11.7754H10.1478V15.1836C10.1478 15.654 10.5287 16.0357 10.9999 16.0357C11.4711 16.0357 11.8519 15.654 11.8519 15.1836V11.7754H15.2601C15.7313 11.7754 16.1122 11.3937 16.1122 10.9234C16.1122 10.453 15.7313 10.0713 15.2601 10.0713Z" fill="#fff"/>
</svg>
