<svg width="73" height="73" viewBox="0 0 73 73" fill="none" xmlns="http://www.w3.org/2000/svg">
<circle opacity="0.09" cx="36.5" cy="36.5" r="36.5" fill="#107EC3"/>
<g clip-path="url(#clip0)">
<path d="M47.7499 35.25H37.7501V25.2499C37.7501 24.5601 37.19 24 36.4999 24C35.8101 24 35.25 24.5601 35.25 25.2499V35.25H25.2499C24.5601 35.25 24 35.8101 24 36.4999C24 37.19 24.5601 37.7501 25.2499 37.7501H35.25V47.7499C35.25 48.44 35.8101 49.0001 36.4999 49.0001C37.19 49.0001 37.7501 48.44 37.7501 47.7499V37.7501H47.7499C48.44 37.7501 49.0001 37.19 49.0001 36.4999C49.0001 35.8101 48.44 35.25 47.7499 35.25Z" fill="#676E8B"/>
</g>
<defs>
<clipPath id="clip0">
<rect width="25" height="25" fill="white" transform="translate(24 24)"/>
</clipPath>
</defs>
</svg>
