<svg width="18" height="20" viewBox="0 0 18 20" fill="none" xmlns="http://www.w3.org/2000/svg">
<g clip-path="url(#clip0)">
<path d="M8.99928 20C10.4184 20 11.5695 18.8809 11.5695 17.5H6.42906C6.42906 18.8809 7.58017 20 8.99928 20ZM17.6533 14.152C16.8771 13.341 15.4246 12.1211 15.4246 8.125C15.4246 5.08984 13.2357 2.66016 10.2842 2.06406V1.25C10.2842 0.559766 9.70883 0 8.99928 0C8.28972 0 7.71437 0.559766 7.71437 1.25V2.06406C4.76286 2.66016 2.57393 5.08984 2.57393 8.125C2.57393 12.1211 1.12148 13.341 0.345232 14.152C0.104161 14.4039 -0.00271357 14.7051 -0.000704643 15C0.00371499 15.6406 0.520812 16.25 1.28902 16.25H16.7095C17.4777 16.25 17.9952 15.6406 17.9993 15C18.0013 14.7051 17.8944 14.4035 17.6533 14.152Z" fill="#444C63"/>
</g>
<defs>
<clipPath id="clip0">
<rect width="18" height="20" fill="white"/>
</clipPath>
</defs>
</svg>
