<svg width="55" height="25" viewBox="0 0 55 25" fill="none" xmlns="http://www.w3.org/2000/svg">
<path d="M27.464 7.06896C27.3946 6.8003 27.2993 6.5533 27.178 6.32796C27.0566 6.10263 26.9006 5.90763 26.71 5.74296C26.5193 5.5783 26.294 5.45263 26.034 5.36596C25.7826 5.27063 25.488 5.22296 25.15 5.22296C24.656 5.22296 24.227 5.32263 23.863 5.52196C23.5076 5.7213 23.2173 5.98996 22.992 6.32796C22.7666 6.6573 22.5976 7.0343 22.485 7.45896C22.381 7.88363 22.329 8.31696 22.329 8.75896C22.329 9.20096 22.381 9.6343 22.485 10.059C22.5976 10.4836 22.7666 10.865 22.992 11.203C23.2173 11.5323 23.5076 11.7966 23.863 11.996C24.227 12.1953 24.656 12.295 25.15 12.295C25.514 12.295 25.8346 12.2343 26.112 12.113C26.3893 11.983 26.6276 11.8096 26.827 11.593C27.0263 11.3676 27.1823 11.1076 27.295 10.813C27.4076 10.5183 27.4813 10.202 27.516 9.86396H29.102C29.0673 10.4186 28.946 10.9256 28.738 11.385C28.5386 11.8443 28.2656 12.243 27.919 12.581C27.5723 12.9103 27.165 13.166 26.697 13.348C26.229 13.53 25.7133 13.621 25.15 13.621C24.4566 13.621 23.8326 13.4953 23.278 13.244C22.732 12.984 22.2683 12.633 21.887 12.191C21.5056 11.749 21.211 11.2333 21.003 10.644C20.8036 10.0546 20.704 9.4263 20.704 8.75896C20.704 8.1003 20.8036 7.4763 21.003 6.88696C21.211 6.29763 21.5056 5.78196 21.887 5.33996C22.2683 4.89796 22.732 4.54696 23.278 4.28696C23.8326 4.02696 24.4566 3.89696 25.15 3.89696C25.67 3.89696 26.1596 3.97063 26.619 4.11796C27.0783 4.25663 27.4813 4.46463 27.828 4.74196C28.1833 5.01063 28.4693 5.33996 28.686 5.72996C28.9026 6.11996 29.037 6.5663 29.089 7.06896H27.464ZM30.3718 4.11796H31.8538V7.56296H31.8798C32.0618 7.25963 32.3305 7.0083 32.6858 6.80896C33.0498 6.60096 33.4528 6.49696 33.8948 6.49696C34.6315 6.49696 35.2121 6.68763 35.6368 7.06896C36.0615 7.4503 36.2738 8.0223 36.2738 8.78496V13.4H34.7918V9.17496C34.7745 8.6463 34.6618 8.26496 34.4538 8.03096C34.2458 7.7883 33.9208 7.66696 33.4788 7.66696C33.2275 7.66696 33.0021 7.71463 32.8028 7.80996C32.6035 7.89663 32.4345 8.0223 32.2958 8.18696C32.1571 8.34296 32.0488 8.5293 31.9708 8.74596C31.8928 8.96263 31.8538 9.1923 31.8538 9.43496V13.4H30.3718V4.11796ZM43.4657 11.905C43.4657 12.087 43.4873 12.217 43.5307 12.295C43.5827 12.373 43.678 12.412 43.8167 12.412C43.86 12.412 43.912 12.412 43.9727 12.412C44.0333 12.412 44.1027 12.4033 44.1807 12.386V13.413C44.1287 13.4303 44.0593 13.4476 43.9727 13.465C43.8947 13.491 43.8123 13.5126 43.7257 13.53C43.639 13.5473 43.5523 13.5603 43.4657 13.569C43.379 13.5776 43.3053 13.582 43.2447 13.582C42.9413 13.582 42.69 13.5213 42.4907 13.4C42.2913 13.2786 42.1613 13.0663 42.1007 12.763C41.806 13.049 41.442 13.257 41.0087 13.387C40.584 13.517 40.1723 13.582 39.7737 13.582C39.4703 13.582 39.18 13.5386 38.9027 13.452C38.6253 13.374 38.3783 13.257 38.1617 13.101C37.9537 12.9363 37.7847 12.7326 37.6547 12.49C37.5333 12.2386 37.4727 11.9483 37.4727 11.619C37.4727 11.203 37.5463 10.865 37.6937 10.605C37.8497 10.345 38.049 10.1413 38.2917 9.99396C38.543 9.84663 38.8203 9.74263 39.1237 9.68196C39.4357 9.61263 39.7477 9.56063 40.0597 9.52596C40.3283 9.47396 40.584 9.4393 40.8267 9.42196C41.0693 9.39596 41.2817 9.35696 41.4637 9.30496C41.6543 9.25296 41.8017 9.17496 41.9057 9.07096C42.0183 8.9583 42.0747 8.79363 42.0747 8.57696C42.0747 8.3863 42.027 8.2303 41.9317 8.10896C41.845 7.98763 41.7323 7.89663 41.5937 7.83596C41.4637 7.76663 41.3163 7.7233 41.1517 7.70596C40.987 7.67996 40.831 7.66696 40.6837 7.66696C40.2677 7.66696 39.9253 7.75363 39.6567 7.92696C39.388 8.1003 39.2363 8.36896 39.2017 8.73296H37.7197C37.7457 8.29963 37.8497 7.93996 38.0317 7.65396C38.2137 7.36796 38.4433 7.1383 38.7207 6.96496C39.0067 6.79163 39.3273 6.6703 39.6827 6.60096C40.038 6.53163 40.402 6.49696 40.7747 6.49696C41.104 6.49696 41.429 6.53163 41.7497 6.60096C42.0703 6.6703 42.3563 6.78296 42.6077 6.93896C42.8677 7.09496 43.0757 7.29863 43.2317 7.54996C43.3877 7.79263 43.4657 8.09163 43.4657 8.44696V11.905ZM41.9837 10.033C41.7583 10.1803 41.481 10.2713 41.1517 10.306C40.8223 10.332 40.493 10.3753 40.1637 10.436C40.0077 10.462 39.856 10.501 39.7087 10.553C39.5613 10.5963 39.4313 10.6613 39.3187 10.748C39.206 10.826 39.115 10.9343 39.0457 11.073C38.985 11.203 38.9547 11.3633 38.9547 11.554C38.9547 11.7186 39.0023 11.8573 39.0977 11.97C39.193 12.0826 39.3057 12.1736 39.4357 12.243C39.5743 12.3036 39.7217 12.347 39.8777 12.373C40.0423 12.399 40.1897 12.412 40.3197 12.412C40.4843 12.412 40.662 12.3903 40.8527 12.347C41.0433 12.3036 41.221 12.23 41.3857 12.126C41.559 12.022 41.702 11.892 41.8147 11.736C41.9273 11.5713 41.9837 11.372 41.9837 11.138V10.033ZM44.3843 6.67896H45.5023V4.66396H46.9843V6.67896H48.3233V7.78396H46.9843V11.372C46.9843 11.528 46.9886 11.6623 46.9973 11.775C47.0146 11.8876 47.045 11.983 47.0883 12.061C47.1403 12.139 47.214 12.1996 47.3093 12.243C47.4046 12.2776 47.5346 12.295 47.6993 12.295C47.8033 12.295 47.9073 12.295 48.0113 12.295C48.1153 12.2863 48.2193 12.269 48.3233 12.243V13.387C48.1586 13.4043 47.9983 13.4216 47.8423 13.439C47.6863 13.4563 47.526 13.465 47.3613 13.465C46.9713 13.465 46.655 13.4303 46.4123 13.361C46.1783 13.283 45.992 13.1746 45.8533 13.036C45.7233 12.8886 45.6323 12.7066 45.5803 12.49C45.537 12.2733 45.511 12.0263 45.5023 11.749V7.78396H44.3843V6.67896Z" fill="#676E8B"/>
<path d="M9.06805 1.58997C9.06359 1.59443 9.05466 1.59443 9.04127 1.59443C4.52399 1.59443 0.850357 5.26806 0.850357 9.78534C0.850357 11.6288 1.47974 13.4188 2.63138 14.8606L1.43957 17.6281C1.34137 17.8557 1.44849 18.1191 1.67168 18.2128C1.75203 18.2485 1.8413 18.2575 1.92611 18.2441L6.29609 17.4763C7.17097 17.7932 8.0905 17.9539 9.01895 17.9495C13.5362 17.9495 17.2099 14.2758 17.2099 9.75855C17.2188 5.25467 13.5719 1.59443 9.06805 1.58997ZM9.02341 17.0612C8.16192 17.0612 7.30935 16.905 6.50142 16.6014C6.42553 16.5702 6.34519 16.5657 6.26484 16.5791L2.58674 17.2219L3.55983 14.9588C3.62679 14.8025 3.6 14.6195 3.48841 14.4901C2.96169 13.8786 2.5421 13.1822 2.2475 12.4279C1.91718 11.5842 1.74756 10.687 1.74756 9.78087C1.74756 5.75461 5.02393 2.48271 9.04573 2.48271C13.0586 2.47378 16.3171 5.7189 16.3216 9.73177C16.3216 9.7407 16.3216 9.74963 16.3216 9.75855C16.3216 13.7893 13.0452 17.0612 9.02341 17.0612Z" fill="#676E8B" stroke="#676E8B" stroke-width="0.5"/>
<path d="M8.67515 8.13818H6.26475C6.01924 8.13818 5.81837 8.33905 5.81837 8.58455C5.81837 8.83006 6.01924 9.03093 6.26475 9.03093H8.67515C8.92065 9.03093 9.12152 8.83006 9.12152 8.58455C9.12152 8.33905 8.92065 8.13818 8.67515 8.13818Z" fill="#676E8B"/>
<path d="M11.7998 10.3701H6.26475C6.01924 10.3701 5.81837 10.571 5.81837 10.8165C5.81837 11.062 6.01924 11.2629 6.26475 11.2629H11.7998C12.0453 11.2629 12.2461 11.062 12.2461 10.8165C12.2461 10.571 12.0453 10.3701 11.7998 10.3701Z" fill="#676E8B"/>
</svg>
