<svg width="126" height="126" viewBox="0 0 126 126" fill="none" xmlns="http://www.w3.org/2000/svg">
<circle cx="63" cy="63" r="61.5" fill="#E9E9E9" stroke="white" stroke-width="3"/>
<path fill-rule="evenodd" clip-rule="evenodd" d="M92.0191 30.6612L96.8762 45.2327C96.9512 45.4593 96.9929 45.6957 97 45.9345V46.0001V48.4287C96.9913 52.2338 95.1918 55.8129 92.1429 58.0895V58.1429V89.7144C92.1429 93.7382 88.881 97.0001 84.8572 97.0001H41.1428C37.119 97.0001 33.8571 93.7382 33.8571 89.7144V58.1429V58.0895C30.8082 55.8129 29.0088 52.2338 29 48.4287V46.0001V45.9345C29.0071 45.6958 29.049 45.4595 29.1238 45.2327L33.981 30.6612C34.3115 29.6689 35.24 28.9997 36.2857 29H89.7144C90.7602 28.9997 91.6887 29.6689 92.0191 30.6612ZM87.9634 33.857H80V43.5713H91.2031L87.9634 33.857ZM65.4288 33.857H75.1431V43.5713H65.4288V33.857ZM60.5719 33.857H50.8575V43.5713H60.5719V33.857ZM38.0365 33.857H45.9999V43.5713H34.7968L38.0365 33.857ZM58.1425 92.1431H67.8568V72.7145H58.1425V92.1431ZM87.2856 89.7141C87.2856 91.0554 86.1983 92.1427 84.857 92.1427H72.7141V70.2856C72.7141 68.9443 71.6268 67.8569 70.2855 67.8569H55.7141C54.3727 67.8569 53.2854 68.9443 53.2854 70.2856V92.1427H41.1426C39.8013 92.1427 38.714 91.0554 38.714 89.7141V60.3283C42.1222 61.028 45.6663 60.2146 48.4283 58.0989C52.7636 61.283 58.6645 61.283 62.9998 58.0989C67.3351 61.283 73.2359 61.283 77.5712 58.0989C80.3333 60.2148 83.8774 61.028 87.2856 60.3283V89.7141ZM79.4006 53.1934C80.7631 54.7917 82.7574 55.7129 84.8576 55.7142C88.8814 55.7142 92.1433 52.4523 92.1433 48.4285H33.8575C33.8575 52.4523 37.1194 55.7142 41.1432 55.7142C43.2436 55.7129 45.2378 54.7917 46.6003 53.1934C46.635 53.1564 46.671 53.1205 46.708 53.0857C47.7179 52.1351 49.3072 52.1835 50.2577 53.1934C50.4364 53.3929 50.6258 53.5823 50.8253 53.761C53.8392 56.4613 58.4715 56.2073 61.1717 53.1934C61.2064 53.1564 61.2424 53.1205 61.2794 53.0857C62.2895 52.1351 63.8787 52.1835 64.8291 53.1934C65.0078 53.3929 65.1974 53.5823 65.3967 53.761C68.4106 56.4613 73.0428 56.2073 75.7432 53.1934C75.8148 53.1114 75.8919 53.0343 75.9738 52.9627C76.9837 52.0802 78.518 52.1835 79.4006 53.1934Z" fill="#41596B"/>
</svg>
