<svg width="7" height="12" viewBox="0 0 7 12" fill="none" xmlns="http://www.w3.org/2000/svg">
<path d="M6.19591 0.00247777L4.65164 0C2.9167 0 1.79551 1.1503 1.79551 2.9307V4.28195H0.242821C0.10865 4.28195 0 4.39073 0 4.5249V6.48271C0 6.61688 0.108774 6.72553 0.242821 6.72553H1.79551V11.6657C1.79551 11.7999 1.90416 11.9085 2.03834 11.9085H4.06416C4.19833 11.9085 4.30698 11.7997 4.30698 11.6657V6.72553H6.12244C6.25661 6.72553 6.36526 6.61688 6.36526 6.48271L6.366 4.5249C6.366 4.46048 6.34036 4.39878 6.29489 4.35319C6.24943 4.3076 6.18748 4.28195 6.12306 4.28195H4.30698V3.13648C4.30698 2.58592 4.43818 2.30643 5.15537 2.30643L6.19566 2.30606C6.32971 2.30606 6.43836 2.19728 6.43836 2.06324V0.245299C6.43836 0.111376 6.32983 0.00272554 6.19591 0.00247777Z" fill="white"/>
</svg>
