<svg width="18" height="19" viewBox="0 0 18 19" fill="none" xmlns="http://www.w3.org/2000/svg">
<rect width="18" height="19" fill="white"/>
<path fill-rule="evenodd" clip-rule="evenodd" d="M9.25 4C5.5 4 2.2975 6.3325 1 9.625C2.2975 12.9175 5.5 15.25 9.25 15.25C13 15.25 16.2025 12.9175 17.5 9.625C16.2025 6.3325 13 4 9.25 4ZM9.25 13.375C7.18 13.375 5.5 11.695 5.5 9.625C5.5 7.555 7.18 5.875 9.25 5.875C11.32 5.875 13 7.555 13 9.625C13 11.695 11.32 13.375 9.25 13.375ZM9.25 7.375C8.005 7.375 7 8.38 7 9.625C7 10.87 8.005 11.875 9.25 11.875C10.495 11.875 11.5 10.87 11.5 9.625C11.5 8.38 10.495 7.375 9.25 7.375Z" fill="#B4B4B4"/>
<rect x="12.8454" y="0.658858" width="2" height="18.5" transform="rotate(29.7732 12.8454 0.658858)" fill="#B4B4B4" stroke="white" stroke-width="0.5"/>
</svg>
