<svg width="17" height="17" viewBox="0 0 17 17" fill="none" xmlns="http://www.w3.org/2000/svg">
<ellipse cx="8.43904" cy="8.44" rx="8.43904" ry="8.44" fill="#6EABD0"/>
<path d="M8.71322 8.44001L10.8643 6.28872C10.94 6.21298 10.94 6.09018 10.8643 6.01445C10.7885 5.93872 10.6657 5.93871 10.59 6.01445L8.43897 8.16574L6.28795 6.01445C6.21222 5.93871 6.08943 5.93871 6.01371 6.01445C5.93799 6.09019 5.93798 6.21299 6.01371 6.28872L8.16474 8.44L6.01371 10.5913C5.93798 10.667 5.93798 10.7898 6.01371 10.8656C6.05157 10.9034 6.1012 10.9224 6.15083 10.9224C6.20046 10.9224 6.25009 10.9034 6.28796 10.8656L8.43897 8.71428L10.59 10.8656C10.6279 10.9034 10.6775 10.9224 10.7271 10.9224C10.7768 10.9224 10.8264 10.9034 10.8643 10.8656C10.94 10.7898 10.94 10.667 10.8643 10.5913L8.71322 8.44001Z" fill="white"/>
</svg>
