<svg width="12" height="12" viewBox="0 0 12 12" fill="none" xmlns="http://www.w3.org/2000/svg">
<path d="M11.5861 11.589V11.5886H11.589V7.33829C11.589 5.25902 11.1414 3.65732 8.71059 3.65732C7.54203 3.65732 6.75784 4.29858 6.43769 4.90652H6.40389V3.85143H4.09912V11.5886H6.49902V7.75742C6.49902 6.74869 6.69024 5.77328 7.93944 5.77328C9.17029 5.77328 9.18864 6.92446 9.18864 7.82213V11.589H11.5861Z" fill="white"/>
<path d="M0.191162 3.85193H2.59396V11.5891H0.191162V3.85193Z" fill="white"/>
<path d="M1.39165 0C0.623394 0 0 0.623394 0 1.39165C0 2.15991 0.623394 2.79634 1.39165 2.79634C2.15991 2.79634 2.7833 2.15991 2.7833 1.39165C2.78282 0.623394 2.15942 0 1.39165 0V0Z" fill="white"/>
</svg>
