<svg width="214" height="70" viewBox="0 0 214 70" fill="none" xmlns="http://www.w3.org/2000/svg">
<path d="M118.839 0C109.579 9.2847 104.378 21.8738 104.378 35C104.378 48.1262 109.579 60.7153 118.839 70C108.916 60.0572 101.125 49.1134 101.125 35.0334C101.125 20.9533 108.916 9.9428 118.839 0Z" fill="#D2E8F3"/>
<path d="M79.5488 25.6255H92.8674V28.0278H81.9462V34.0335H92.0017V36.3023H81.9462V42.9753H93.0006V45.3109H79.5488V25.6255Z" fill="#878F97"/>
<path d="M51.4463 25.7584H59.3042C61.4352 25.7584 62.9002 26.4257 63.8325 27.8271C64.3743 28.6594 64.6528 29.6362 64.6317 30.6297C64.6692 31.7184 64.3146 32.7842 63.6328 33.6326C63.2329 34.1305 62.734 34.5396 62.1677 34.8337C62.961 35.0974 63.6879 35.5299 64.2987 36.1016C65.1327 37.0848 65.5614 38.3495 65.4974 39.6383C65.5124 40.8781 65.1398 42.0914 64.4319 43.1083C63.2998 44.6431 61.5684 45.3771 59.1711 45.3771H51.4463V25.7584ZM58.3719 34.033C59.1979 34.0872 60.0238 33.9263 60.7693 33.5659C61.7016 33.0987 62.1677 32.2313 62.1677 30.8966C62.1677 29.562 61.7016 28.7613 60.7027 28.3609C59.9207 28.0475 59.0794 27.9108 58.2387 27.9605H53.8436V34.033H58.3719ZM59.1711 43.1083C60.7027 43.1083 61.7682 42.6412 62.4341 41.7069C62.8502 41.05 63.0591 40.2826 63.0334 39.5048C63.0873 38.8955 62.9408 38.2852 62.6161 37.7671C62.2915 37.249 61.8066 36.8515 61.2354 36.6354C60.4637 36.283 59.6184 36.1227 58.7715 36.1683H53.8436V43.1083H59.1711Z" fill="#878F97"/>
<path d="M203.744 26.0244C203.677 26.0244 203.611 26.0244 203.544 26.1579L197.351 35.7003L191.291 44.9758C191.266 45.0191 191.253 45.0687 191.254 45.119C191.255 45.1692 191.271 45.2181 191.299 45.2599C191.326 45.3018 191.366 45.3349 191.411 45.3555C191.457 45.376 191.508 45.3832 191.557 45.3762H193.489L193.755 45.2427L199.948 35.7003L205.942 26.4248C205.964 26.3864 205.977 26.3431 205.978 26.2986C205.98 26.2542 205.97 26.2101 205.95 26.1703C205.93 26.1305 205.901 26.0963 205.864 26.0708C205.828 26.0454 205.786 26.0294 205.742 26.0244H203.744Z" fill="#71828F"/>
<path d="M119.439 25.8254C121.745 25.8122 123.984 26.6044 125.77 28.0657C127.557 29.5271 128.779 31.5663 129.228 33.833C129.295 34.0332 129.162 34.1667 128.962 34.1667H127.297C127.164 34.1667 127.031 34.0999 127.031 33.9665C126.611 32.3171 125.678 30.8445 124.367 29.7625C122.971 28.6359 121.232 28.0217 119.439 28.0217C117.646 28.0217 115.908 28.6359 114.511 29.7625C113.223 30.8649 112.295 32.3295 111.848 33.9665C111.848 34.0999 111.714 34.1667 111.581 34.1667H109.916C109.84 34.1511 109.772 34.1091 109.723 34.0482C109.674 33.9872 109.648 33.9111 109.65 33.833C110.109 31.6463 111.28 29.6745 112.98 28.2277C114.765 26.6582 117.064 25.8029 119.439 25.8254ZM119.439 45.8445C121.826 45.824 124.133 44.9751 125.965 43.4422C127.645 41.9617 128.791 39.9685 129.228 37.7701C129.295 37.6366 129.162 37.4364 128.962 37.4364H127.297C127.262 37.4364 127.227 37.4433 127.195 37.4568C127.163 37.4702 127.133 37.4898 127.109 37.5146C127.084 37.5394 127.064 37.5688 127.051 37.6012C127.038 37.6336 127.031 37.6683 127.031 37.7034C126.713 38.9835 126.077 40.1621 125.181 41.1291C124.286 42.096 123.16 42.8199 121.91 43.2331C120.66 43.6462 119.326 43.7352 118.032 43.4917C116.738 43.2482 115.527 42.6802 114.511 41.8406C113.212 40.7761 112.28 39.3286 111.848 37.7034C111.848 37.6683 111.841 37.6336 111.827 37.6012C111.814 37.5688 111.794 37.5394 111.77 37.5146C111.745 37.4898 111.715 37.4702 111.683 37.4568C111.651 37.4433 111.616 37.4364 111.581 37.4364H109.916C109.783 37.4364 109.65 37.6366 109.65 37.7701C110.109 39.9754 111.279 41.9683 112.98 43.4422C114.78 44.9853 117.07 45.8367 119.439 45.8445Z" fill="#71828F"/>
<path d="M33.7339 45.1093C33.7339 45.1443 33.7408 45.179 33.7542 45.2114C33.7675 45.2438 33.7872 45.2732 33.8119 45.298C33.8366 45.3228 33.866 45.3424 33.8983 45.3559C33.9306 45.3693 33.9653 45.3762 34.0003 45.3762H35.6651C35.7001 45.3762 35.7347 45.3693 35.767 45.3559C35.7993 45.3424 35.8287 45.3228 35.8534 45.298C35.8782 45.2732 35.8978 45.2438 35.9112 45.2114C35.9246 45.179 35.9314 45.1443 35.9314 45.1093V26.2913C35.9314 26.2563 35.9246 26.2216 35.9112 26.1892C35.8978 26.1568 35.8782 26.1274 35.8534 26.1026C35.8287 26.0778 35.7993 26.0581 35.767 26.0447C35.7347 26.0313 35.7001 26.0244 35.6651 26.0244H34.0003C33.9296 26.0244 33.8619 26.0525 33.8119 26.1026C33.762 26.1527 33.7339 26.2205 33.7339 26.2913V45.1093Z" fill="#878F97"/>
<path d="M174.378 45.1093C174.378 45.1801 174.406 45.2479 174.456 45.298C174.506 45.3481 174.574 45.3762 174.644 45.3762H176.309C176.38 45.3762 176.448 45.3481 176.497 45.298C176.547 45.2479 176.575 45.1801 176.575 45.1093V26.2913C176.575 26.2205 176.547 26.1527 176.497 26.1026C176.448 26.0525 176.38 26.0244 176.309 26.0244H174.644C174.574 26.0244 174.506 26.0525 174.456 26.1026C174.406 26.1527 174.378 26.2205 174.378 26.2913V45.1093Z" fill="#71828F"/>
<path d="M143.411 26.0929H143.211C143.078 26.0929 143.012 26.0929 143.012 26.1596C143.012 26.2264 142.878 26.2931 142.878 26.3598V28.8288C142.878 28.8956 142.945 28.9623 142.945 29.029L150.27 37.1701L157.662 45.3112H157.995C158.062 45.2445 158.062 45.2445 158.062 45.1777V42.5753C158.065 42.5391 158.06 42.5027 158.049 42.4683C158.037 42.4339 158.019 42.4022 157.995 42.3751L150.736 34.3007L143.411 26.0929Z" fill="#71828F"/>
<path d="M155.865 41.5058C155.862 41.542 155.866 41.5784 155.877 41.6128C155.889 41.6472 155.907 41.6789 155.931 41.706L156.997 42.8404L157.596 43.5745C157.729 43.7747 158.062 43.6412 158.062 43.3743V26.2913C158.062 26.2205 158.034 26.1527 157.984 26.1026C157.934 26.0525 157.867 26.0244 157.796 26.0244H156.131C156.06 26.0244 155.993 26.0525 155.943 26.1026C155.893 26.1527 155.865 26.2205 155.865 26.2913V41.5058Z" fill="#71828F"/>
<path d="M142.878 28.5624C142.889 28.5062 142.914 28.4536 142.951 28.4098C142.988 28.366 143.035 28.3324 143.089 28.3123C143.142 28.2921 143.2 28.2862 143.256 28.2949C143.313 28.3037 143.366 28.3269 143.411 28.3622L144.011 29.0295L145.009 30.2307C145.076 30.2307 145.076 30.2974 145.076 30.3641V45.1115C145.076 45.1823 145.048 45.2502 144.998 45.3003C144.948 45.3503 144.88 45.3784 144.81 45.3784H143.145C143.074 45.3784 143.006 45.3503 142.956 45.3003C142.906 45.2502 142.878 45.1823 142.878 45.1115V28.5624Z" fill="#71828F"/>
<path d="M195.753 32.498C195.62 32.6982 195.353 32.6982 195.287 32.498L193.289 29.4284L191.291 26.4256C191.266 26.3823 191.253 26.3327 191.254 26.2824C191.255 26.2322 191.271 26.1833 191.299 26.1414C191.326 26.0996 191.366 26.0665 191.411 26.0459C191.457 26.0254 191.508 26.0182 191.557 26.0252H193.489C193.622 26.0252 193.688 26.0252 193.755 26.1587L195.22 28.4275L196.685 30.6963C196.723 30.7437 196.744 30.8025 196.744 30.8631C196.744 30.9238 196.723 30.9826 196.685 31.03L196.152 31.8307L195.753 32.498Z" fill="#71828F"/>
<path d="M197.951 36.5034C197.918 36.5401 197.9 36.5876 197.9 36.6369C197.9 36.6861 197.918 36.7336 197.951 36.7703L202.013 42.9763L203.545 45.2451L203.745 45.3785H205.743C205.787 45.3735 205.829 45.3576 205.865 45.3321C205.902 45.3066 205.931 45.2725 205.951 45.2327C205.971 45.1929 205.98 45.1488 205.979 45.1043C205.977 45.0599 205.965 45.0165 205.942 44.9782L204.011 41.9753L199.416 34.9686C199.283 34.7684 199.017 34.7684 198.95 34.9686L198.484 35.6359L197.951 36.5034Z" fill="#71828F"/>
<path d="M126.697 32.9003C127.456 34.7608 127.456 36.8453 126.697 38.7059L128.695 39.6401C129.201 38.436 129.461 37.1428 129.461 35.8365C129.461 34.5301 129.201 33.237 128.695 32.0328L126.697 32.9003Z" fill="#71828F"/>
<path d="M2.10159 26.0252C2.15328 26.0252 2.20426 26.0373 2.2505 26.0604C2.29673 26.0836 2.33695 26.1172 2.36796 26.1587L4.89848 31.5638L7.4956 37.0357V37.2359L6.96286 38.437L6.5633 39.1711C6.54027 39.2128 6.5065 39.2476 6.46551 39.2718C6.42453 39.296 6.37781 39.3088 6.33023 39.3088C6.28265 39.3088 6.23593 39.296 6.19495 39.2718C6.15396 39.2476 6.12019 39.2128 6.09716 39.1711L3.10048 32.8317L0.0372153 26.4256C0.011631 26.3823 -0.00123707 26.3327 9.36958e-05 26.2824C0.00142446 26.2322 0.0168999 26.1833 0.0447371 26.1414C0.0725743 26.0996 0.111642 26.0665 0.157438 26.0459C0.203234 26.0254 0.253895 26.0182 0.303587 26.0252H2.10159ZM8.09494 43.1749C8.02835 43.2416 8.02835 43.3083 8.09494 43.4418L8.49449 44.2426L8.89405 45.1768L9.02724 45.3102H9.42679C9.46212 45.3102 9.49599 45.2962 9.52097 45.2711C9.54594 45.2461 9.55998 45.2122 9.55998 45.1768L14.0883 35.5676L18.4834 26.4256C18.509 26.3823 18.5219 26.3327 18.5205 26.2824C18.5192 26.2322 18.5037 26.1833 18.4759 26.1414C18.448 26.0996 18.409 26.0665 18.3632 26.0459C18.3174 26.0254 18.2667 26.0182 18.217 26.0252H16.419C16.3673 26.0252 16.3164 26.0373 16.2701 26.0604C16.2239 26.0836 16.1837 26.1172 16.1527 26.1587L12.0905 34.6334L8.09494 43.1749Z" fill="#878F97"/>
<path d="M208.206 26.3573H207.141V26.0237H209.738V26.3573H208.606V29.2935H208.206V26.3573Z" fill="#71828F"/>
<path d="M210.87 26.024H211.27L212.468 27.8258L213.667 26.024H214V29.2938H213.667V26.6246L212.468 28.4263L211.27 26.6246V29.2938H210.87V26.024Z" fill="#71828F"/>
</svg>
