<svg width="15" height="15" viewBox="0 0 15 15" fill="none" xmlns="http://www.w3.org/2000/svg">
<path d="M10.5766 11.4844V12.6562C10.5766 13.9486 9.52522 15 8.23278 15H2.34385C1.05141 15 0 13.9486 0 12.6562V2.34375C0 1.05137 1.05141 0 2.34385 0H8.23278C9.52522 0 10.5766 1.05137 10.5766 2.34375V3.51562C10.5766 3.83926 10.3143 4.10156 9.99067 4.10156C9.66702 4.10156 9.40471 3.83926 9.40471 3.51562V2.34375C9.40471 1.69762 8.87894 1.17188 8.23278 1.17188H2.34385C1.69769 1.17188 1.17193 1.69762 1.17193 2.34375V12.6562C1.17193 13.3024 1.69769 13.8281 2.34385 13.8281H8.23278C8.87894 13.8281 9.40471 13.3024 9.40471 12.6562V11.4844C9.40471 11.1607 9.66702 10.8984 9.99067 10.8984C10.3143 10.8984 10.5766 11.1607 10.5766 11.4844ZM14.5716 6.49349L13.2595 5.18143C13.0306 4.95255 12.6596 4.95255 12.4308 5.18143C12.2019 5.41019 12.2019 5.78121 12.4308 6.00998L13.3641 6.94336H6.3284C6.00475 6.94336 5.74244 7.20566 5.74244 7.5293C5.74244 7.85294 6.00475 8.11523 6.3284 8.11523H13.3641L12.4308 9.04861C12.2019 9.27738 12.2019 9.6484 12.4308 9.87717C12.5452 9.99161 12.6951 10.0488 12.8451 10.0488C12.9951 10.0488 13.145 9.99161 13.2595 9.87717L14.5716 8.5651C15.1428 7.99393 15.1428 7.06467 14.5716 6.49349Z" fill="#3D4455"/>
</svg>
