<svg width="148" height="44" viewBox="0 0 148 44" fill="none" xmlns="http://www.w3.org/2000/svg">
<path d="M82.1876 0C75.7838 5.8361 72.1866 13.7492 72.1866 22C72.1866 30.2508 75.7838 38.1639 82.1876 44C75.3254 37.7502 69.937 30.8713 69.937 22.021C69.937 13.1706 75.3254 6.24976 82.1876 0Z" fill="#D2E8F3"/>
<path d="M55.0151 16.1074H64.2261V17.6174H56.6731V21.3925H63.6274V22.8186H56.6731V27.013H64.3182V28.4811H55.0151V16.1074Z" fill="#878F97"/>
<path d="M35.5796 16.1918H41.0141C42.4878 16.1918 43.501 16.6112 44.1458 17.4921C44.5204 18.0153 44.713 18.6292 44.6984 19.2537C44.7244 19.938 44.4792 20.608 44.0076 21.1412C43.7311 21.4542 43.386 21.7114 42.9944 21.8963C43.543 22.062 44.0458 22.3338 44.4682 22.6932C45.045 23.3112 45.3414 24.1062 45.2972 24.9163C45.3075 25.6955 45.0499 26.4582 44.5603 27.0974C43.7773 28.0621 42.5799 28.5235 40.9219 28.5235H35.5796V16.1918ZM40.3693 21.3929C40.9405 21.427 41.5117 21.3259 42.0273 21.0993C42.672 20.8057 42.9944 20.2604 42.9944 19.4215C42.9944 18.5826 42.672 18.0793 41.9812 17.8276C41.4404 17.6306 40.8586 17.5447 40.2772 17.5759H37.2376V21.3929H40.3693ZM40.9219 27.0974C41.9812 27.0974 42.7181 26.8038 43.1786 26.2166C43.4664 25.8036 43.6109 25.3212 43.5931 24.8324C43.6304 24.4493 43.529 24.0657 43.3045 23.7401C43.08 23.4144 42.7446 23.1646 42.3496 23.0288C41.8159 22.8072 41.2313 22.7065 40.6456 22.7351H37.2376V27.0974H40.9219Z" fill="#878F97"/>
<path d="M140.907 16.3569C140.861 16.3569 140.815 16.3569 140.769 16.4408L136.486 22.4389L132.295 28.2692C132.277 28.2964 132.268 28.3276 132.269 28.3592C132.27 28.3908 132.281 28.4215 132.3 28.4478C132.319 28.4741 132.346 28.495 132.378 28.5079C132.41 28.5208 132.445 28.5253 132.479 28.5209H133.815L133.999 28.437L138.282 22.4389L142.427 16.6086C142.442 16.5845 142.451 16.5572 142.452 16.5293C142.453 16.5014 142.446 16.4736 142.433 16.4486C142.419 16.4236 142.399 16.4021 142.373 16.3861C142.348 16.3701 142.319 16.3601 142.289 16.3569H140.907Z" fill="#71828F"/>
<path d="M82.6026 16.2337C84.1975 16.2254 85.7457 16.7233 86.9812 17.6419C88.2167 18.5604 89.0623 19.8423 89.3727 21.267C89.4187 21.3929 89.3266 21.4768 89.1885 21.4768H88.0371C87.945 21.4768 87.8529 21.4348 87.8529 21.3509C87.5628 20.3142 86.9175 19.3885 86.0107 18.7084C85.045 18.0003 83.8424 17.6142 82.6026 17.6142C81.3628 17.6142 80.1603 18.0003 79.1946 18.7084C78.3038 19.4014 77.662 20.3219 77.3524 21.3509C77.3524 21.4348 77.2603 21.4768 77.1682 21.4768H76.0168C75.964 21.467 75.9166 21.4406 75.883 21.4023C75.8493 21.364 75.8315 21.3161 75.8326 21.267C76.15 19.8925 76.96 18.6531 78.1353 17.7437C79.3699 16.7571 80.9603 16.2196 82.6026 16.2337ZM82.6026 28.8171C84.2535 28.8042 85.8485 28.2706 87.116 27.3071C88.2775 26.3765 89.0706 25.1236 89.3727 23.7418C89.4187 23.6579 89.3266 23.532 89.1885 23.532H88.0371C88.0129 23.532 87.9889 23.5364 87.9666 23.5448C87.9442 23.5533 87.9239 23.5656 87.9068 23.5812C87.8897 23.5968 87.8761 23.6153 87.8669 23.6356C87.8576 23.656 87.8529 23.6778 87.8529 23.6998C87.6331 24.5045 87.193 25.2453 86.5737 25.8531C85.9544 26.4609 85.1761 26.9159 84.3115 27.1756C83.4468 27.4353 82.5241 27.4913 81.6293 27.3382C80.7345 27.1852 79.8968 26.8281 79.1946 26.3004C78.2959 25.6313 77.6513 24.7214 77.3524 23.6998C77.3524 23.6778 77.3476 23.656 77.3384 23.6356C77.3291 23.6153 77.3155 23.5968 77.2984 23.5812C77.2813 23.5656 77.261 23.5533 77.2387 23.5448C77.2163 23.5364 77.1924 23.532 77.1682 23.532H76.0168C75.9247 23.532 75.8326 23.6579 75.8326 23.7418C76.1503 25.128 76.9594 26.3806 78.1353 27.3071C79.3806 28.277 80.964 28.8122 82.6026 28.8171Z" fill="#71828F"/>
<path d="M23.3301 28.3531C23.3301 28.3751 23.3348 28.397 23.3441 28.4173C23.3534 28.4377 23.3669 28.4562 23.384 28.4717C23.4011 28.4873 23.4214 28.4997 23.4438 28.5081C23.4661 28.5166 23.4901 28.5209 23.5143 28.5209H24.6657C24.6899 28.5209 24.7138 28.5166 24.7362 28.5081C24.7585 28.4997 24.7788 28.4873 24.7959 28.4717C24.813 28.4562 24.8266 28.4377 24.8359 28.4173C24.8451 28.397 24.8499 28.3751 24.8499 28.3531V16.5247C24.8499 16.5027 24.8451 16.4809 24.8359 16.4605C24.8266 16.4402 24.813 16.4217 24.7959 16.4061C24.7788 16.3905 24.7585 16.3781 24.7362 16.3697C24.7138 16.3613 24.6899 16.3569 24.6657 16.3569H23.5143C23.4654 16.3569 23.4186 16.3746 23.384 16.4061C23.3495 16.4375 23.3301 16.4802 23.3301 16.5247V28.3531Z" fill="#878F97"/>
<path d="M120.598 28.3531C120.598 28.3976 120.617 28.4403 120.652 28.4717C120.686 28.5032 120.733 28.5209 120.782 28.5209H121.933C121.982 28.5209 122.029 28.5032 122.064 28.4717C122.098 28.4403 122.117 28.3976 122.117 28.3531V16.5247C122.117 16.4802 122.098 16.4375 122.064 16.4061C122.029 16.3746 121.982 16.3569 121.933 16.3569H120.782C120.733 16.3569 120.686 16.3746 120.652 16.4061C120.617 16.4375 120.598 16.4802 120.598 16.5247V28.3531Z" fill="#71828F"/>
<path d="M99.1814 16.3997H99.0433C98.9512 16.3997 98.9051 16.3997 98.9051 16.4416C98.9051 16.4835 98.813 16.5255 98.813 16.5674V18.1194C98.813 18.1613 98.859 18.2033 98.859 18.2452L103.925 23.3625L109.037 28.4797H109.267C109.313 28.4378 109.313 28.4378 109.313 28.3958V26.76C109.316 26.7373 109.313 26.7144 109.305 26.6927C109.297 26.6711 109.284 26.6512 109.267 26.6341L104.247 21.5588L99.1814 16.3997Z" fill="#71828F"/>
<path d="M107.795 26.0881C107.792 26.1108 107.795 26.1337 107.803 26.1553C107.811 26.177 107.824 26.1969 107.841 26.2139L108.578 26.927L108.992 27.3884C109.084 27.5142 109.314 27.4303 109.314 27.2626V16.5247C109.314 16.4802 109.295 16.4375 109.26 16.4061C109.226 16.3746 109.179 16.3569 109.13 16.3569H107.979C107.93 16.3569 107.883 16.3746 107.849 16.4061C107.814 16.4375 107.795 16.4802 107.795 16.5247V26.0881Z" fill="#71828F"/>
<path d="M98.813 17.9536C98.8204 17.9182 98.8376 17.8851 98.8631 17.8576C98.8885 17.8301 98.9214 17.809 98.9584 17.7963C98.9954 17.7837 99.0354 17.7799 99.0744 17.7854C99.1135 17.7909 99.1503 17.8055 99.1814 17.8277L99.5959 18.2472L100.287 19.0022C100.333 19.0022 100.333 19.0441 100.333 19.0861V28.3558C100.333 28.4003 100.313 28.443 100.279 28.4745C100.244 28.5059 100.197 28.5236 100.149 28.5236H98.9972C98.9484 28.5236 98.9015 28.5059 98.8669 28.4745C98.8324 28.443 98.813 28.4003 98.813 28.3558V17.9536Z" fill="#71828F"/>
<path d="M135.38 20.426C135.288 20.5518 135.104 20.5518 135.058 20.426L133.676 18.4965L132.295 16.609C132.277 16.5818 132.268 16.5506 132.269 16.519C132.27 16.4874 132.281 16.4567 132.3 16.4304C132.319 16.4041 132.346 16.3833 132.378 16.3704C132.41 16.3575 132.445 16.3529 132.479 16.3574H133.815C133.907 16.3574 133.953 16.3574 133.999 16.4412L135.012 17.8674L136.025 19.2935C136.051 19.3232 136.066 19.3602 136.066 19.3983C136.066 19.4365 136.051 19.4734 136.025 19.5032L135.657 20.0065L135.38 20.426Z" fill="#71828F"/>
<path d="M136.901 22.945C136.878 22.968 136.866 22.9979 136.866 23.0289C136.866 23.0598 136.878 23.0897 136.901 23.1127L139.71 27.0136L140.769 28.4397L140.908 28.5236H142.289C142.32 28.5205 142.349 28.5105 142.374 28.4944C142.399 28.4784 142.42 28.4569 142.433 28.4319C142.447 28.4069 142.454 28.3792 142.453 28.3513C142.452 28.3233 142.443 28.2961 142.427 28.272L141.092 26.3844L137.914 21.9802C137.822 21.8544 137.638 21.8544 137.592 21.9802L137.269 22.3997L136.901 22.945Z" fill="#71828F"/>
<path d="M87.6226 20.6802C88.1473 21.8496 88.1473 23.1599 87.6226 24.3294L89.0042 24.9166C89.3538 24.1597 89.5339 23.3469 89.5339 22.5257C89.5339 21.7046 89.3538 20.8918 89.0042 20.1349L87.6226 20.6802Z" fill="#71828F"/>
<path d="M1.45344 16.3574C1.48919 16.3574 1.52444 16.3649 1.55642 16.3795C1.58839 16.3941 1.61621 16.4152 1.63766 16.4412L3.38774 19.8388L5.18388 23.2782V23.4041L4.81544 24.1591L4.53911 24.6205C4.52318 24.6467 4.49983 24.6686 4.47148 24.6838C4.44313 24.699 4.41082 24.707 4.37792 24.707C4.34501 24.707 4.3127 24.699 4.28436 24.6838C4.25601 24.6686 4.23266 24.6467 4.21673 24.6205L2.14426 20.6357L0.0257377 16.609C0.00804385 16.5818 -0.000855541 16.5506 6.4799e-05 16.519C0.000985139 16.4874 0.0116878 16.4567 0.0309397 16.4304C0.0501916 16.4041 0.0772106 16.3833 0.108882 16.3704C0.140554 16.3575 0.175591 16.3529 0.209958 16.3574H1.45344ZM5.59837 27.1372C5.55232 27.1791 5.55232 27.221 5.59837 27.3049L5.8747 27.8083L6.15103 28.3955L6.24314 28.4794H6.51947C6.5439 28.4794 6.56732 28.4706 6.5846 28.4548C6.60187 28.4391 6.61157 28.4178 6.61157 28.3955L9.7433 22.3555L12.7829 16.609C12.8006 16.5818 12.8095 16.5506 12.8086 16.519C12.8077 16.4874 12.797 16.4567 12.7777 16.4304C12.7585 16.4041 12.7314 16.3833 12.6998 16.3704C12.6681 16.3575 12.6331 16.3529 12.5987 16.3574H11.3552C11.3195 16.3574 11.2842 16.3649 11.2522 16.3795C11.2203 16.3941 11.1925 16.4152 11.171 16.4412L8.36166 21.7682L5.59837 27.1372Z" fill="#878F97"/>
<path d="M143.993 16.5675H143.256V16.3578H145.052V16.5675H144.269V18.4131H143.993V16.5675Z" fill="#71828F"/>
<path d="M145.835 16.358H146.112L146.941 17.4905L147.77 16.358H148V18.4133H147.77V16.7355L146.941 17.868L146.112 16.7355V18.4133H145.835V16.358Z" fill="#71828F"/>
</svg>
