<svg width="410" height="282" viewBox="0 0 410 282" fill="none" xmlns="http://www.w3.org/2000/svg">
<g clip-path="url(#clip0)">
<path opacity="0.1" d="M285.626 84.7552C285.937 84.312 286.109 83.7858 286.119 83.2443C286.119 79.9635 279.431 77.3086 271.181 77.3086C262.931 77.3086 256.243 79.9635 256.243 83.2443C256.258 83.8578 256.475 84.4493 256.859 84.9279C247.673 85.9531 241.486 87.8742 241.486 90.0794C241.486 93.3566 255.164 96.0151 272.081 96.0151C288.998 96.0151 302.676 93.3566 302.676 90.0794C302.658 87.759 295.704 85.7265 285.626 84.7552Z" fill="#435EBE"/>
<g opacity="0.2">
<path opacity="0.2" d="M327.576 256.789C327.447 257.726 327.395 258.672 327.422 259.617C333.694 259.718 339.994 259.929 346.322 260.25C346.365 260.006 346.409 259.75 346.445 259.495C346.85 256.858 346.546 254.161 345.563 251.681C344.26 248.505 341.83 246.235 338.789 245.799C335.747 245.364 332.781 246.857 330.64 249.523C328.988 251.628 327.93 254.137 327.576 256.789Z" fill="#3F3D56"/>
<path opacity="0.2" d="M348.633 244.424C349.613 237.608 346.184 231.475 340.974 230.727C335.763 229.978 330.745 234.897 329.764 241.713C328.784 248.529 332.213 254.662 337.424 255.41C342.634 256.159 347.653 251.24 348.633 244.424Z" fill="#3F3D56"/>
<path opacity="0.2" d="M350.801 229.342C351.781 222.526 348.352 216.393 343.142 215.645C337.931 214.896 332.913 219.815 331.932 226.631C330.952 233.447 334.381 239.579 339.592 240.328C344.802 241.077 349.821 236.158 350.801 229.342Z" fill="#3F3D56"/>
<path opacity="0.2" d="M352.969 214.256C353.95 207.44 350.521 201.307 345.31 200.559C340.1 199.81 335.081 204.729 334.101 211.545C333.12 218.361 336.55 224.494 341.76 225.242C346.97 225.991 351.989 221.072 352.969 214.256Z" fill="#3F3D56"/>
<path opacity="0.2" d="M355.138 199.17C356.118 192.354 352.689 186.221 347.479 185.473C342.268 184.724 337.25 189.643 336.269 196.459C335.289 203.275 338.718 209.408 343.928 210.156C349.139 210.905 354.158 205.986 355.138 199.17Z" fill="#3F3D56"/>
<path opacity="0.2" d="M395.844 99.6544C397.368 98.1944 398.791 96.6318 400.102 94.9778L375.9 87.3621L402.679 91.4128C406.056 86.188 408.331 80.3296 409.364 74.196C410.396 68.0624 410.166 61.7826 408.687 55.741L370.043 69.2204L406.711 49.6254C404.374 43.8139 400.865 38.5454 396.402 34.1483C391.939 29.7511 386.618 26.3193 380.771 24.0667C374.923 21.8141 368.674 20.7888 362.413 21.0548C356.152 21.3209 350.013 22.8724 344.378 25.6129C338.742 28.3534 333.732 32.2241 329.659 36.9839C325.586 41.7438 322.536 47.2908 320.701 53.2796C318.866 59.2684 318.285 65.5707 318.993 71.7939C319.701 78.0171 321.683 84.028 324.817 89.4522C322.442 91.7166 320.318 94.2301 318.482 96.9492L348.256 118.275L315.606 101.842C312.173 108.612 310.485 116.13 310.692 123.717C310.899 131.303 312.996 138.718 316.793 145.291C310.593 151.199 306.182 158.731 304.063 167.027C301.944 175.323 302.204 184.047 304.812 192.202C307.421 200.358 312.272 207.615 318.813 213.144C325.354 218.673 333.319 222.251 341.799 223.469C350.278 224.687 358.93 223.496 366.763 220.031C374.597 216.567 381.298 210.969 386.099 203.878C390.9 196.787 393.607 188.489 393.912 179.933C394.216 171.377 392.106 162.907 387.821 155.493C395.229 148.432 400.047 139.089 401.503 128.962C402.958 118.835 400.967 108.514 395.848 99.6544H395.844Z" fill="#435EBE"/>
<path opacity="0.1" d="M311.134 115.984C309.661 126.111 311.654 136.439 316.789 145.292C310.589 151.2 306.177 158.732 304.058 167.028C301.94 175.324 302.199 184.048 304.808 192.203C307.416 200.359 312.268 207.616 318.809 213.145C325.349 218.674 333.315 222.252 341.794 223.47C350.274 224.688 358.925 223.497 366.759 220.032C374.593 216.568 381.293 210.97 386.094 203.879C390.895 196.788 393.603 188.49 393.907 179.934C394.212 171.378 392.101 162.908 387.817 155.494C394.976 148.681 311.861 110.915 311.134 115.984Z" fill="black"/>
</g>
<g opacity="0.2">
<path opacity="0.2" d="M59.9161 243.453C60.0583 244.266 60.269 245.065 60.546 245.842C65.6596 244.197 70.826 242.638 76.0451 241.165C76.0163 240.95 75.984 240.727 75.9444 240.504C75.5747 238.213 74.609 236.059 73.144 234.258C71.2399 231.981 68.6627 230.765 66.0783 231.244C63.4939 231.722 61.4855 233.762 60.4596 236.582C59.6831 238.786 59.4958 241.155 59.9161 243.453Z" fill="#3F3D56"/>
<path opacity="0.2" d="M67.3875 239.612C71.8328 238.909 74.6737 233.521 73.7328 227.577C72.7919 221.633 68.4255 217.384 63.9802 218.087C59.5348 218.79 56.6939 224.178 57.6348 230.122C58.5757 236.066 62.9422 240.315 67.3875 239.612Z" fill="#3F3D56"/>
<path opacity="0.2" d="M66.2147 226.778C70.6703 226.058 73.5013 220.645 72.5378 214.687C71.5744 208.729 67.1814 204.483 62.7258 205.203C58.2702 205.922 55.4392 211.336 56.4026 217.293C57.366 223.251 61.759 227.498 66.2147 226.778Z" fill="#3F3D56"/>
<path opacity="0.2" d="M62.8509 213.372C67.2962 212.669 70.1371 207.281 69.1962 201.336C68.2553 195.392 63.8889 191.144 59.4435 191.846C54.9982 192.549 52.1573 197.938 53.0982 203.882C54.0391 209.826 58.4055 214.075 62.8509 213.372Z" fill="#3F3D56"/>
<path opacity="0.2" d="M60.5862 200.249C65.0316 199.546 67.8725 194.157 66.9316 188.213C65.9906 182.269 61.6242 178.021 57.1789 178.723C52.7335 179.426 49.8926 184.815 50.8336 190.759C51.7745 196.703 56.1409 200.952 60.5862 200.249Z" fill="#3F3D56"/>
<path opacity="0.2" d="M73.3634 94.1843C74.2117 92.5572 74.9489 90.8746 75.5698 89.1479L53.9013 89.4861L76.7072 85.4678C78.138 79.8885 78.3686 74.0695 77.3839 68.3946C76.5248 63.3725 74.7195 58.5591 72.064 54.21L44.3088 76.0498L68.8281 49.6701C60.1607 39.1693 46.4036 33.5682 32.2075 36.1799C10.9889 40.0723 -3.14607 60.822 0.600935 82.5144C2.0799 91.2772 6.44852 99.2941 13.0118 105.289C11.6848 107.827 10.6314 110.498 9.86946 113.258L39.7159 122.758L8.82923 118.114C8.18584 122.419 8.23688 126.798 8.9804 131.086C10.4594 139.849 14.828 147.866 21.3912 153.862C17.2479 161.784 15.8347 170.852 17.3707 179.658C21.1177 201.354 41.3429 215.776 62.5471 211.873C83.7513 207.97 97.9007 187.224 94.1537 165.528C92.6731 156.767 88.3047 148.751 81.7428 142.756C85.8854 134.832 87.2986 125.764 85.7634 116.956C84.2858 108.196 79.9213 100.181 73.3634 94.1843Z" fill="#435EBE"/>
<path opacity="0.1" d="M8.99144 131.087C10.4704 139.85 14.839 147.867 21.4023 153.862C17.2589 161.785 15.8457 170.852 17.3817 179.659C21.1287 201.355 41.3539 215.777 62.5581 211.874C83.7624 207.971 97.9117 187.224 94.1647 165.528C92.6842 156.767 88.3158 148.752 81.7539 142.757C85.7456 135.123 8.22836 126.68 8.99144 131.087Z" fill="black"/>
</g>
<path d="M40.9795 213.469C40.9795 232.287 52.7892 247.511 67.3849 247.511L40.9795 213.469Z" fill="#444C63"/>
<path d="M67.3848 247.511C67.3848 228.485 80.5659 213.088 96.8569 213.088L67.3848 247.511Z" fill="#435EBE"/>
<path d="M50.5469 215.174C50.5469 233.049 58.0769 247.511 67.385 247.511L50.5469 215.174Z" fill="#435EBE"/>
<path d="M67.3848 247.513C67.3848 223.202 82.6211 203.527 101.45 203.527L67.3848 247.513Z" fill="#444C63"/>
<path opacity="0.1" d="M189.996 267.845C291.578 267.845 373.926 265.109 373.926 261.733C373.926 258.358 291.578 255.621 189.996 255.621C88.4135 255.621 6.06494 258.358 6.06494 261.733C6.06494 265.109 88.4135 267.845 189.996 267.845Z" fill="#435EBE"/>
<path opacity="0.1" d="M64.336 252.342C68.0495 252.342 71.0598 251.833 71.0598 251.205C71.0598 250.577 68.0495 250.068 64.336 250.068C60.6226 250.068 57.6123 250.577 57.6123 251.205C57.6123 251.833 60.6226 252.342 64.336 252.342Z" fill="#435EBE"/>
<path d="M59.8188 245.926C59.8188 245.926 63.6558 245.811 64.8113 244.988C65.9667 244.164 70.7071 243.189 70.9951 244.502C71.283 245.815 76.7542 251.064 72.4348 251.096C68.1155 251.128 62.378 250.423 61.2226 249.722C60.0672 249.02 59.8188 245.926 59.8188 245.926Z" fill="#A8A8A8"/>
<path opacity="0.2" d="M72.5068 250.638C68.1875 250.67 62.4464 249.962 61.2946 249.26C60.4163 248.728 60.0636 246.807 59.9484 245.922H59.8188C59.8188 245.922 60.0636 249.016 61.2154 249.717C62.3672 250.419 68.1011 251.127 72.4276 251.091C73.6766 251.091 74.1086 250.638 74.087 249.98C73.9142 250.383 73.4355 250.631 72.5068 250.638Z" fill="black"/>
<path d="M260.078 93.4602C253.707 62.0049 226.401 38.3066 193.181 38.3066C166.785 38.3066 144.03 53.3493 132.65 75.224C105.344 77.9594 83.9561 101.208 83.9561 129.488C83.9561 159.573 108.527 184.197 138.568 184.197H256.895C281.923 184.197 302.405 163.679 302.405 138.606C302.453 127.086 298.092 115.985 290.219 107.587C282.345 99.1893 271.559 94.1337 260.078 93.4602Z" fill="#3A9EA5"/>
<g opacity="0.1">
<path opacity="0.1" d="M138.621 5.346L138.679 5.31353C138.664 5.23957 138.653 5.16491 138.646 5.08984C138.645 5.10543 138.645 5.12116 138.646 5.13675C138.634 5.206 138.626 5.27585 138.621 5.346Z" fill="black"/>
<path opacity="0.1" d="M148.451 12.33C148.327 13.3736 147.963 14.3744 147.389 15.2547C147.389 15.3626 147.389 15.4706 147.389 15.5785C147.381 17.3452 146.691 19.0407 145.464 20.3121C144.236 21.5835 142.565 22.3328 140.799 22.4042C139.033 22.4756 137.307 21.8635 135.981 20.6953C134.654 19.5271 133.83 17.8928 133.679 16.1325C133.679 16.3196 133.654 16.4922 133.654 16.6937C133.654 18.5141 134.377 20.2599 135.665 21.5472C136.953 22.8344 138.7 23.5575 140.522 23.5575C142.343 23.5575 144.09 22.8344 145.378 21.5472C146.666 20.2599 147.389 18.5141 147.389 16.6937C147.389 16.5822 147.389 16.4742 147.389 16.3663C147.965 15.4866 148.328 14.4855 148.451 13.4416C148.508 12.9821 148.516 12.5179 148.476 12.0566C148.487 12.1466 148.465 12.2401 148.451 12.33Z" fill="black"/>
<path opacity="0.1" d="M147.116 5.08594C147.04 5.66305 146.848 6.21876 146.551 6.71916C146.673 6.84147 146.785 6.97097 146.911 7.10048C147.02 6.79697 147.095 6.48198 147.134 6.16156C147.175 5.80376 147.169 5.44217 147.116 5.08594Z" fill="black"/>
</g>
<g opacity="0.1">
<path opacity="0.1" d="M145.795 57.3884C145.19 58.205 144.647 59.1511 144.715 60.1656C144.731 60.2856 144.725 60.4075 144.697 60.5253C144.638 60.6487 144.552 60.757 144.445 60.8419C143.604 61.6149 142.948 62.568 142.527 63.6299C142.439 63.8128 142.396 64.0136 142.401 64.2163C142.438 64.4067 142.524 64.5842 142.65 64.7317C142.776 64.8792 142.938 64.9916 143.121 65.0581C143.487 64.4592 143.935 63.9144 144.452 63.4392C144.559 63.3543 144.646 63.246 144.704 63.1227C144.732 63.0048 144.738 62.8829 144.722 62.7629C144.661 61.7485 145.205 60.8023 145.802 59.9857C146.4 59.1691 147.109 58.3957 147.451 57.4424C147.746 56.5096 147.776 55.5132 147.537 54.5645C147.513 54.658 147.484 54.7515 147.451 54.845C147.102 55.7984 146.403 56.5754 145.795 57.3884Z" fill="black"/>
<path opacity="0.1" d="M131.948 50.6825C132.067 50.6584 132.178 50.6025 132.269 50.5209C132.359 50.4393 132.426 50.3348 132.462 50.2184C132.47 50.1719 132.47 50.1246 132.462 50.0781L132.308 50.1896C132.149 50.3217 132.025 50.4911 131.948 50.6825Z" fill="black"/>
<path opacity="0.1" d="M121.178 73.5398C120.344 73.4224 119.525 73.2175 118.734 72.9283L111.535 70.5684C111.263 71.3482 110.945 72.111 110.582 72.8527L118.734 75.5256C119.525 75.8148 120.344 76.0198 121.178 76.1371C121.973 76.2049 122.773 76.1662 123.557 76.022C123.532 75.1694 123.514 74.3025 123.493 73.4355C122.729 73.5708 121.951 73.6059 121.178 73.5398Z" fill="black"/>
<path opacity="0.1" d="M140.896 81.4438C140.408 81.7218 139.843 81.833 139.287 81.7604C138.412 81.5661 137.941 80.6416 137.588 79.8214L134.381 72.382C133.661 70.7451 132.959 69.0436 132.7 67.2988C132.678 67.4211 132.66 67.5435 132.642 67.6586C132.351 70.1767 133.362 72.641 134.381 74.9685L137.588 82.4079C137.948 83.2281 138.412 84.1526 139.287 84.3469C139.843 84.4195 140.408 84.3084 140.896 84.0303C143.847 82.6489 146.208 80.048 149.362 79.2206C149.197 78.4035 148.868 77.6286 148.393 76.9435C145.708 77.9975 143.538 80.2027 140.896 81.4438Z" fill="black"/>
<path opacity="0.1" d="M135.079 58.0352C133.827 59.4022 131.962 59.9849 130.324 60.8519C129.342 61.3735 128.42 62.0067 127.445 62.5175C126.471 63.0676 125.374 63.3645 124.256 63.3809C123.77 63.3809 123.223 63.2874 122.845 63.5967C122.924 64.4061 123.158 65.194 123.291 65.9962C123.611 65.953 123.934 65.9458 124.256 65.9746C125.374 65.9595 126.471 65.6638 127.445 65.1148C128.431 64.604 129.352 63.9709 130.324 63.4492C131.404 62.8772 132.581 62.4312 133.618 61.798C134.194 60.58 134.682 59.3225 135.079 58.0352Z" fill="black"/>
</g>
<path d="M292.58 205.754C292.58 241.145 314.795 269.788 342.252 269.788L292.58 205.754Z" fill="#444C63"/>
<path d="M342.251 269.786C342.251 233.992 367.041 205.033 397.683 205.033L342.251 269.786Z" fill="#435EBE"/>
<path d="M310.577 208.939C310.577 242.561 324.74 269.768 342.252 269.768L310.577 208.939Z" fill="#435EBE"/>
<path d="M342.251 269.787C342.251 224.053 370.906 187.047 406.321 187.047L342.251 269.787Z" fill="#444C63"/>
<path opacity="0.1" d="M340.096 281.999C346.916 281.999 352.445 281.065 352.445 279.913C352.445 278.76 346.916 277.826 340.096 277.826C333.275 277.826 327.746 278.76 327.746 279.913C327.746 281.065 333.275 281.999 340.096 281.999Z" fill="#435EBE"/>
<path d="M331.799 270.218C331.799 270.218 338.843 270.002 340.967 268.491C343.09 266.981 351.804 265.175 352.33 267.599C352.855 270.024 362.916 279.651 354.965 279.715C347.014 279.78 336.485 278.478 334.365 277.197C332.245 275.916 331.799 270.218 331.799 270.218Z" fill="#A8A8A8"/>
<path opacity="0.2" d="M355.094 278.87C347.143 278.935 336.615 277.633 334.495 276.352C332.882 275.366 332.238 271.844 332.026 270.215H331.788C331.788 270.215 332.234 275.892 334.354 277.183C336.475 278.474 346.999 279.777 354.954 279.701C357.247 279.683 358.042 278.867 357.999 277.658C357.69 278.421 356.815 278.856 355.094 278.87Z" fill="black"/>
<path opacity="0.1" d="M293.544 13.1673C293.856 12.7241 294.027 12.1979 294.037 11.6564C294.037 8.37558 287.349 5.7207 279.1 5.7207C270.85 5.7207 264.162 8.37558 264.162 11.6564C264.169 12.2665 264.375 12.8577 264.749 13.34C255.563 14.3652 249.375 16.2863 249.375 18.4915C249.375 21.7687 263.053 24.4272 279.971 24.4272C296.888 24.4272 310.566 21.7687 310.566 18.4915C310.577 16.1711 303.622 14.1386 293.544 13.1673Z" fill="#435EBE"/>
<path opacity="0.1" d="M110.333 19.6419C110.645 19.1987 110.816 18.6725 110.826 18.131C110.826 14.8502 104.139 12.1953 95.8886 12.1953C87.6388 12.1953 80.951 14.8502 80.951 18.131C80.966 18.7445 81.1822 19.336 81.5665 19.8146C72.3808 20.8399 66.1934 22.7609 66.1934 24.9661C66.1934 28.2433 79.8892 30.9018 96.7885 30.9018C113.688 30.9018 127.384 28.2433 127.384 24.9661C127.366 22.6458 120.412 20.6132 110.333 19.6419Z" fill="#435EBE"/>
<path opacity="0.1" d="M215.343 14.657C216.181 14.1714 217.315 14.6354 217.891 15.4197C218.467 16.2039 218.611 17.2184 218.773 18.1609C219.093 20.2905 219.327 22.7332 217.891 24.334C220.238 17.222 226.987 11.7755 234.449 10.9805" stroke="#435EBE" stroke-width="3" stroke-miterlimit="10"/>
<path opacity="0.1" d="M95.291 50.9833C95.8309 50.6704 96.558 50.9833 96.9288 51.4726C97.2589 52.0052 97.4541 52.6103 97.4975 53.2353C97.7026 54.6059 97.8574 56.1744 96.9324 57.1925C97.7217 54.9086 99.1375 52.8926 101.018 51.3743C102.899 49.856 105.169 48.8965 107.569 48.6055" stroke="#435EBE" stroke-width="3" stroke-miterlimit="10"/>
<path opacity="0.1" d="M257.266 61.7744C257.806 61.4614 258.533 61.7744 258.903 62.2636C259.234 62.7962 259.429 63.4013 259.472 64.0263C259.677 65.3969 259.832 66.9654 258.907 67.9835C259.696 65.6997 261.112 63.6836 262.993 62.1653C264.873 60.647 267.143 59.6876 269.543 59.3965" stroke="#435EBE" stroke-width="3" stroke-miterlimit="10"/>
<path opacity="0.1" d="M243.987 182.73V173.989L248.019 178.018L249.026 176.975L243.267 171.219L237.508 176.975L238.516 177.978L242.548 173.989V182.73H243.987Z" fill="#435EBE"/>
<path opacity="0.1" d="M156.881 211.51V202.768L160.913 206.797L161.921 205.754L156.161 199.998L150.402 205.754L151.41 206.758L155.442 202.768V211.51H156.881Z" fill="#435EBE"/>
<path opacity="0.1" d="M220.951 237.051V228.309L224.982 232.338L225.99 231.295L220.231 225.539L214.472 231.295L215.48 232.299L219.511 228.309V237.051H220.951Z" fill="#435EBE"/>
<g clip-path="url(#clip1)">
<path d="M205.051 94.2295H181.331C180.79 94.2301 180.272 94.4443 179.89 94.825C179.507 95.2056 179.292 95.7217 179.292 96.2601V148.764L179.02 148.846L173.201 150.621C172.925 150.705 172.627 150.676 172.373 150.541C172.118 150.407 171.927 150.177 171.843 149.902L154.534 93.5946C154.45 93.3199 154.478 93.0232 154.614 92.7696C154.749 92.516 154.98 92.3264 155.256 92.2422L164.223 89.5077L190.219 81.5831L199.186 78.8486C199.323 78.8068 199.466 78.7922 199.608 78.8056C199.75 78.819 199.888 78.8603 200.014 78.9269C200.141 78.9935 200.252 79.0843 200.343 79.194C200.434 79.3037 200.502 79.4301 200.544 79.5661L204.968 93.9587L205.051 94.2295Z" fill="#F2F2F2"/>
<path d="M210.228 93.9588L204.895 76.6123C204.806 76.3233 204.661 76.0545 204.468 75.8213C204.275 75.5881 204.038 75.3951 203.77 75.2533C203.502 75.1115 203.209 75.0237 202.906 74.9949C202.604 74.966 202.3 74.9968 202.009 75.0853L189.402 78.9285L163.407 86.8545L150.8 90.699C150.214 90.8781 149.724 91.2813 149.436 91.8201C149.149 92.359 149.088 92.9893 149.267 93.5729L167.492 152.856C167.637 153.327 167.93 153.739 168.328 154.033C168.726 154.326 169.207 154.484 169.702 154.485C169.931 154.485 170.159 154.45 170.378 154.383L179.02 151.749L179.292 151.665V151.382L179.02 151.464L170.297 154.124C169.78 154.281 169.222 154.228 168.745 153.975C168.268 153.723 167.91 153.292 167.752 152.777L149.528 93.4931C149.449 93.2382 149.422 92.9703 149.447 92.7048C149.472 92.4393 149.55 92.1814 149.676 91.9459C149.801 91.7104 149.972 91.5019 150.179 91.3323C150.386 91.1627 150.624 91.0354 150.88 90.9576L163.487 87.113L189.482 79.1884L202.09 75.3439C202.284 75.2848 202.486 75.2547 202.689 75.2545C203.125 75.2555 203.549 75.3955 203.899 75.6539C204.25 75.9124 204.508 76.2758 204.636 76.6908L209.944 93.9588L210.028 94.2295H210.311L210.228 93.9588Z" fill="#3F3D56"/>
<path d="M165.841 92.2867C165.579 92.2866 165.324 92.2028 165.113 92.0477C164.902 91.8925 164.747 91.6743 164.67 91.4249L162.919 85.7296C162.872 85.5766 162.856 85.4159 162.871 85.2566C162.887 85.0973 162.933 84.9426 163.009 84.8013C163.084 84.66 163.187 84.5349 163.311 84.4331C163.435 84.3313 163.577 84.2548 163.731 84.208L187.646 76.9164C187.956 76.8221 188.291 76.8543 188.578 77.0058C188.864 77.1573 189.079 77.4159 189.174 77.7246L190.925 83.42C191.019 83.729 190.987 84.0627 190.835 84.348C190.683 84.6332 190.423 84.8468 190.113 84.9417L166.198 92.2333C166.082 92.2687 165.962 92.2867 165.841 92.2867Z" fill="#435EBE"/>
<path d="M175.012 81.0672C176.513 81.0672 177.731 79.855 177.731 78.3598C177.731 76.8645 176.513 75.6523 175.012 75.6523C173.511 75.6523 172.293 76.8645 172.293 78.3598C172.293 79.855 173.511 81.0672 175.012 81.0672Z" fill="#435EBE"/>
<path d="M175.012 80.0753C175.963 80.0753 176.734 79.3078 176.734 78.3609C176.734 77.4141 175.963 76.6465 175.012 76.6465C174.062 76.6465 173.291 77.4141 173.291 78.3609C173.291 79.3078 174.062 80.0753 175.012 80.0753Z" fill="white"/>
<path d="M231.08 153.791H185.136C184.83 153.79 184.536 153.669 184.32 153.453C184.103 153.237 183.981 152.945 183.981 152.64V97.8147C183.981 97.5096 184.103 97.2172 184.32 97.0015C184.536 96.7857 184.83 96.6644 185.136 96.6641H231.08C231.386 96.6644 231.68 96.7858 231.897 97.0015C232.113 97.2172 232.235 97.5097 232.235 97.8147V152.64C232.235 152.945 232.113 153.237 231.897 153.453C231.68 153.669 231.386 153.79 231.08 153.791Z" fill="#E6E6E6"/>
<path d="M209.943 93.957H181.33C180.718 93.9579 180.13 94.2006 179.697 94.632C179.264 95.0634 179.02 95.6483 179.02 96.2583V151.463L179.291 151.38V96.2583C179.292 95.72 179.507 95.2039 179.889 94.8232C180.272 94.4426 180.79 94.2284 181.33 94.2278H210.027L209.943 93.957ZM234.886 93.957H181.33C180.718 93.9579 180.13 94.2006 179.697 94.632C179.264 95.0634 179.02 95.6483 179.02 96.2583V158.258C179.02 158.868 179.264 159.453 179.697 159.885C180.13 160.316 180.718 160.559 181.33 160.56H234.886C235.499 160.559 236.086 160.316 236.519 159.885C236.952 159.453 237.196 158.868 237.197 158.258V96.2583C237.196 95.6483 236.952 95.0634 236.519 94.632C236.086 94.2006 235.499 93.9579 234.886 93.957ZM236.925 158.258C236.924 158.797 236.709 159.313 236.327 159.693C235.945 160.074 235.426 160.288 234.886 160.289H181.33C180.79 160.288 180.272 160.074 179.889 159.693C179.507 159.313 179.292 158.797 179.291 158.258V96.2583C179.292 95.72 179.507 95.2039 179.889 94.8232C180.272 94.4426 180.79 94.2284 181.33 94.2278H234.886C235.426 94.2284 235.945 94.4426 236.327 94.8232C236.709 95.2039 236.924 95.72 236.925 96.2583V158.258Z" fill="#3F3D56"/>
<path d="M220.614 99.9145H195.603C195.279 99.9141 194.968 99.7856 194.739 99.5572C194.509 99.3288 194.38 99.0192 194.38 98.6962V92.7398C194.38 92.4168 194.509 92.1071 194.739 91.8787C194.968 91.6503 195.279 91.5218 195.603 91.5215H220.614C220.938 91.5218 221.249 91.6503 221.479 91.8787C221.708 92.1071 221.837 92.4168 221.837 92.7398V98.6962C221.837 99.0192 221.708 99.3288 221.479 99.5572C221.249 99.7856 220.938 99.9141 220.614 99.9145Z" fill="#435EBE"/>
<path d="M208.108 91.9266C209.61 91.9266 210.827 90.7144 210.827 89.2191C210.827 87.7239 209.61 86.5117 208.108 86.5117C206.607 86.5117 205.39 87.7239 205.39 89.2191C205.39 90.7144 206.607 91.9266 208.108 91.9266Z" fill="#435EBE"/>
<path d="M208.109 90.8685C209.023 90.8685 209.764 90.1301 209.764 89.2194C209.764 88.3086 209.023 87.5703 208.109 87.5703C207.194 87.5703 206.453 88.3086 206.453 89.2194C206.453 90.1301 207.194 90.8685 208.109 90.8685Z" fill="white"/>
</g>
</g>
<defs>
<clipPath id="clip0">
<rect width="410" height="282" fill="white"/>
</clipPath>
<clipPath id="clip1">
<rect width="88.0318" height="85.578" fill="white" transform="translate(149.165 74.9824)"/>
</clipPath>
</defs>
</svg>
