<svg width="25" height="25" viewBox="0 0 25 25" fill="none" xmlns="http://www.w3.org/2000/svg">
<path d="M12.5 22.6562C11.6712 22.6562 10.8763 22.327 10.2903 21.741C9.70424 21.1549 9.375 20.3601 9.375 19.5312C9.375 19.324 9.45731 19.1253 9.60382 18.9788C9.75034 18.8323 9.94905 18.75 10.1562 18.75H14.8438C15.051 18.75 15.2497 18.8323 15.3962 18.9788C15.5427 19.1253 15.625 19.324 15.625 19.5312C15.625 20.3601 15.2958 21.1549 14.7097 21.741C14.1237 22.327 13.3288 22.6562 12.5 22.6562ZM11.1484 20.3125C11.2858 20.5493 11.4829 20.7458 11.7201 20.8824C11.9573 21.0191 12.2263 21.091 12.5 21.091C12.7737 21.091 13.0427 21.0191 13.2799 20.8824C13.5171 20.7458 13.7142 20.5493 13.8516 20.3125H11.1484Z" fill="#676E8B"/>
<path d="M14.0625 5.46875H10.9375C10.7303 5.46875 10.5316 5.38644 10.3851 5.23993C10.2386 5.09341 10.1562 4.8947 10.1562 4.6875C10.1562 4.0659 10.4032 3.46976 10.8427 3.03022C11.2823 2.59068 11.8784 2.34375 12.5 2.34375C13.1216 2.34375 13.7177 2.59068 14.1573 3.03022C14.5968 3.46976 14.8438 4.0659 14.8438 4.6875C14.8438 4.8947 14.7614 5.09341 14.6149 5.23993C14.4684 5.38644 14.2697 5.46875 14.0625 5.46875Z" fill="#676E8B"/>
<path d="M21.0938 20.3125H3.90625C3.69905 20.3125 3.50034 20.2302 3.35382 20.0837C3.20731 19.9372 3.125 19.7385 3.125 19.5312C3.12432 18.6489 3.33712 17.7796 3.74524 16.9973C4.15336 16.2151 4.74469 15.5432 5.46875 15.0391V10.9375C5.46871 9.08079 6.20306 7.29943 7.51156 5.98216C8.82005 4.66488 10.5965 3.91863 12.4531 3.90625H12.5391C14.4039 3.90625 16.1923 4.64704 17.5109 5.96566C18.8295 7.28427 19.5703 9.0727 19.5703 10.9375V15.0391C20.2872 15.5475 20.8709 16.2213 21.2721 17.0033C21.6733 17.7852 21.8801 18.6524 21.875 19.5312C21.875 19.7385 21.7927 19.9372 21.6462 20.0837C21.4997 20.2302 21.301 20.3125 21.0938 20.3125ZM4.76563 18.75H20.2344C20.1237 18.2084 19.8994 17.6964 19.5762 17.2479C19.2529 16.7995 18.8382 16.4247 18.3594 16.1484C18.2402 16.0796 18.1412 15.9805 18.0726 15.8611C18.004 15.7418 17.9682 15.6064 17.9688 15.4687V10.9375C17.9688 9.4871 17.3926 8.0961 16.367 7.07051C15.3414 6.04492 13.9504 5.46875 12.5 5.46875C11.0496 5.46875 9.6586 6.04492 8.63301 7.07051C7.60742 8.0961 7.03125 9.4871 7.03125 10.9375V15.4687C7.0318 15.6064 6.99596 15.7418 6.92736 15.8611C6.85877 15.9805 6.75985 16.0796 6.64063 16.1484C6.1618 16.4247 5.74707 16.7995 5.42385 17.2479C5.10063 17.6964 4.87628 18.2084 4.76563 18.75Z" fill="#676E8B"/>
</svg>
