<svg width="14" height="11" viewBox="0 0 14 11" fill="none" xmlns="http://www.w3.org/2000/svg">
<path d="M13.05 1.25525C12.5648 1.46813 12.0476 1.60923 11.5085 1.67775C12.0631 1.3466 12.4865 0.826231 12.6855 0.199013C12.1684 0.507321 11.5974 0.725094 10.989 0.846622C10.4979 0.323804 9.79814 0 9.03471 0C7.55353 0 6.36108 1.20224 6.36108 2.67608C6.36108 2.88814 6.37903 3.09205 6.42307 3.28617C4.19885 3.17769 2.23074 2.11166 0.90861 0.487746C0.677787 0.888219 0.542393 1.3466 0.542393 1.84006C0.542393 2.76661 1.01954 3.58795 1.73076 4.06346C1.30093 4.0553 0.879247 3.93051 0.522002 3.73395C0.522002 3.7421 0.522002 3.75271 0.522002 3.76331C0.522002 5.06342 1.44937 6.14331 2.66547 6.39208C2.4477 6.45162 2.21035 6.48017 1.96403 6.48017C1.79275 6.48017 1.61984 6.47038 1.45753 6.43449C1.80417 7.49399 2.78782 8.27292 3.95743 8.2982C3.04719 9.01024 1.89144 9.43927 0.640268 9.43927C0.420864 9.43927 0.210432 9.42948 0 9.40256C1.18511 10.1668 2.58962 10.6032 4.10424 10.6032C9.02737 10.6032 11.7189 6.52503 11.7189 2.99009C11.7189 2.87183 11.7149 2.75764 11.7092 2.64427C12.2401 2.26745 12.6863 1.79683 13.05 1.25525Z" fill="white"/>
</svg>
