<svg width="16" height="14" viewBox="0 0 16 14" fill="none" xmlns="http://www.w3.org/2000/svg">
<path d="M5.49517 4.25141L7.14362 2.89682V10.0625C7.14362 10.2365 7.22776 10.4035 7.37753 10.5265C7.5273 10.6496 7.73043 10.7188 7.94224 10.7188C8.15404 10.7188 8.35717 10.6496 8.50694 10.5265C8.65671 10.4035 8.74086 10.2365 8.74086 10.0625V2.89682L10.3893 4.25141C10.4634 4.31262 10.5514 4.36121 10.6484 4.39441C10.7454 4.42761 10.8494 4.44476 10.9545 4.44488C11.0595 4.445 11.1636 4.42808 11.2607 4.3951C11.3578 4.36211 11.446 4.31371 11.5203 4.25267C11.5945 4.19163 11.6534 4.11914 11.6936 4.03936C11.7337 3.95957 11.7543 3.87407 11.7542 3.78774C11.754 3.70141 11.7332 3.61595 11.6927 3.53626C11.6523 3.45657 11.5932 3.38421 11.5187 3.32333L8.50696 0.848449C8.4328 0.787507 8.34476 0.739165 8.24786 0.706183C8.15097 0.673202 8.04712 0.656226 7.94224 0.656226C7.83736 0.656226 7.73351 0.673202 7.63661 0.706183C7.53971 0.739165 7.45167 0.787507 7.37751 0.848449L4.36576 3.32333C4.29127 3.38421 4.23213 3.45657 4.19173 3.53626C4.15132 3.61595 4.13045 3.70141 4.13031 3.78774C4.13017 3.87407 4.15076 3.95957 4.19089 4.03936C4.23103 4.11914 4.28993 4.19163 4.36422 4.25267C4.43851 4.31371 4.52672 4.36211 4.62381 4.3951C4.7209 4.42808 4.82496 4.445 4.93001 4.44488C5.03507 4.44476 5.13907 4.42761 5.23605 4.39441C5.33303 4.36121 5.42109 4.31262 5.49517 4.25141Z" fill="#687B92"/>
<path d="M14.8636 6.34375C14.6518 6.34375 14.4486 6.41289 14.2989 6.53596C14.1491 6.65903 14.0649 6.82595 14.0649 7V12.0313H1.81947V7C1.81947 6.82595 1.73533 6.65903 1.58556 6.53596C1.43579 6.41289 1.23265 6.34375 1.02085 6.34375C0.809041 6.34375 0.605909 6.41289 0.456139 6.53596C0.306369 6.65903 0.222229 6.82595 0.222229 7V12.25C0.222229 12.5401 0.362462 12.8183 0.612079 13.0234C0.861695 13.2285 1.20025 13.3438 1.55326 13.3438H14.3312C14.6842 13.3438 15.0227 13.2285 15.2723 13.0234C15.5219 12.8183 15.6622 12.5401 15.6622 12.25V7C15.6622 6.82595 15.578 6.65903 15.4283 6.53596C15.2785 6.41289 15.0754 6.34375 14.8636 6.34375Z" fill="#687B92"/>
</svg>
